<?xml version="1.0" encoding="UTF-8" standalone="no"?>
<!-- Created with Inkscape (http://www.inkscape.org/) -->

<svg
   width="16"
   height="16"
   viewBox="0 0 16 16"
   version="1.1"
   id="svg1"
   xml:space="preserve"
   xmlns="http://www.w3.org/2000/svg"
   xmlns:svg="http://www.w3.org/2000/svg"><defs
     id="defs1" /><g
     id="layer1"><path
       style="fill:#f9f9f9;stroke-width:0.0198754"
       d="M 5.3544877,14.628767 C 4.7381732,13.650306 4.7928105,13.7463 4.8315511,13.710004 c 0.045254,-0.04241 0.4531761,-0.30629 0.4583882,-0.296548 0.00217,0.0041 0.039182,0.112611 0.081992,0.240843 0.042796,0.128227 0.1051468,0.308083 0.1384945,0.399676 l 0.060652,0.166528 0.077192,-0.274951 c 0.086467,-0.30797 0.1556925,-0.448559 0.3131851,-0.636052 l 0.1070408,-0.127422 -0.038603,-0.113604 c -0.021254,-0.06248 -0.044242,-0.121169 -0.05111,-0.130415 -0.017422,-0.02343 -0.3137706,0.102051 -0.524527,0.222133 -0.3733381,0.212721 -0.7029983,0.483395 -1.0604614,0.870719 -0.1294799,0.140299 -0.1316052,0.14163 -0.071929,0.04496 0.033832,-0.05478 0.1316197,-0.189835 0.2173638,-0.300102 L 4.6951169,13.575276 4.4913872,13.253967 c -0.1120434,-0.17672 -0.2038526,-0.327946 -0.2040189,-0.33605 -5.566e-4,-0.02739 0.6719133,-0.282587 0.750262,-0.284693 0.00651,-1.95e-4 0.046121,0.108842 0.087493,0.242274 l 0.075248,0.2426 0.1615842,-0.102394 c 0.088874,-0.05631 0.2496487,-0.144453 0.3572824,-0.195851 0.1243328,-0.05938 0.194556,-0.104435 0.1925608,-0.123554 -0.00145,-0.01656 -0.012723,-0.09353 -0.024434,-0.171071 l -0.021326,-0.140974 -0.1801412,0.01443 c -0.6026443,0.04839 -1.0183521,0.191627 -1.5974152,0.550487 -0.1434682,0.08891 -0.2578538,0.155603 -0.2541959,0.148203 0.00361,-0.0074 0.083026,-0.08101 0.1763532,-0.163577 0.093327,-0.08257 0.169688,-0.153911 0.169688,-0.158543 0,-0.0047 -0.1260894,-0.210355 -0.280206,-0.457172 C 3.746012,12.071274 3.6211732,11.863776 3.6227058,11.856979 3.6241516,11.850176 3.7145077,11.33504 3.8232836,10.712214 3.9320667,10.089383 4.0544042,9.3937637 4.0951473,9.1663842 L 4.1692308,8.7529735 4.2984577,8.6223807 C 4.3695195,8.5505568 4.428075,8.4851214 4.4285448,8.476976 4.4292678,8.46272 4.3783751,8.3774387 4.094222,7.9174329 L 3.9636432,7.7060722 4.0211867,7.2730935 4.0788024,6.8401149 3.9536238,6.5890505 3.8284524,6.337986 3.7640413,5.6274481 C 3.7286189,5.2366577 3.6783985,4.6937485 3.65241,4.4209807 L 3.6051319,3.9250452 3.5057538,3.8169425 C 3.2319672,3.519141 2.7008184,3.0894927 2.2001401,2.7608369 2.0416283,2.6567803 1.9279439,2.5767991 1.947513,2.5831048 c 0.019591,0.00627 0.1356607,0.04259 0.2579694,0.080579 0.2626828,0.081649 0.7496403,0.2810906 0.9155475,0.3749788 0.064556,0.036498 0.1127012,0.057083 0.1070553,0.045666 C 3.2095065,3.0468255 2.8587881,2.6962888 2.6523836,2.5089443 2.1937496,2.0926706 1.7083608,1.7302855 1.0846582,1.3385072 0.84492773,1.1879206 0.65465855,1.0646628 0.66183702,1.0646096 0.69603053,1.0643315 1.1329918,1.185235 1.3070461,1.2431047 2.0896799,1.5033142 2.8087701,1.9136786 3.4203351,2.4491048 3.5258724,2.5415023 3.6064765,2.6049916 3.5994643,2.5901914 3.5100407,2.4016047 3.0893304,1.7913968 2.8575808,1.5141452 2.7733694,1.4133894 2.7090595,1.3309592 2.7146838,1.3309592 c 0.019663,0 0.3373301,0.2516856 0.4870876,0.3859577 0.5761064,0.5165445 1.0492347,1.1502599 1.3946903,1.8680559 0.1013661,0.2106213 0.1320463,0.254933 0.2802495,0.4047566 0.6207748,0.6275812 1.2240047,1.4023773 1.6695107,2.1443373 0.1119205,0.186404 0.1366656,0.2161286 0.170982,0.2053745 0.1097879,-0.034368 1.1291084,-0.2344956 1.194705,-0.234537 0.066363,-3.55e-5 1.0940839,0.2002339 1.2036766,0.2345606 0.036579,0.011476 0.062965,-0.02165 0.217089,-0.2717622 0.4642438,-0.7535423 1.0335115,-1.4791642 1.6308425,-2.0787836 0.13501,-0.1355203 0.182483,-0.1997431 0.2444,-0.3306198 0.421867,-0.891683 0.990593,-1.6120935 1.731544,-2.1933459 0.09629,-0.075539 0.178702,-0.1328228 0.183134,-0.1272979 0.0043,0.00532 -0.04236,0.065311 -0.103925,0.1328642 -0.180799,0.1983115 -0.603584,0.7981499 -0.761308,1.0801278 -0.04872,0.087133 -0.0446,0.084542 0.160745,-0.1001584 0.539477,-0.4852938 1.281816,-0.9188876 2.014244,-1.1765003 0.196211,-0.06902 0.723789,-0.2136441 0.745852,-0.2044635 0.0091,0.00355 -0.05393,0.046021 -0.140085,0.093918 -0.190175,0.1056715 -0.72475,0.4529962 -0.98246,0.6383235 -0.427541,0.3074553 -1.080413,0.878202 -1.373089,1.2003687 l -0.0961,0.1057839 0.151225,-0.079597 c 0.225142,-0.1185078 0.579034,-0.263392 0.889545,-0.3641892 0.151666,-0.049216 0.283329,-0.08957 0.292582,-0.089629 0.0093,-7.68e-5 -0.09082,0.068434 -0.222388,0.1522134 -0.304062,0.1936206 -0.541139,0.3640058 -0.799622,0.5746922 -0.230586,0.1879538 -0.576721,0.5083932 -0.633737,0.5867004 -0.03347,0.045962 -0.04511,0.1345738 -0.103043,0.78458 -0.03593,0.4030057 -0.08541,0.9463407 -0.109997,1.207408 l -0.04468,0.4746699 -0.12374,0.2423394 -0.123733,0.2423334 0.05357,0.3966111 c 0.02942,0.2181338 0.05357,0.4167647 0.05357,0.4413962 0,0.024608 -0.08241,0.1779746 -0.183127,0.3407586 -0.100723,0.162784 -0.202248,0.3300341 -0.225612,0.3716662 l -0.04251,0.075698 0.128229,0.1463453 0.12823,0.1463453 0.09583,0.5440035 c 0.0527,0.2991975 0.173195,0.987293 0.267744,1.52909 0.09455,0.541803 0.175507,0.996798 0.179902,1.011114 0.0043,0.01431 -0.120798,0.229349 -0.278218,0.47787 -0.157427,0.24852 -0.279722,0.458935 -0.271762,0.467577 0.008,0.0086 0.07616,0.06817 0.151557,0.132285 0.207294,0.176241 0.202805,0.196684 -0.01337,0.06098 -0.58507,-0.367254 -0.97685,-0.513274 -1.52918,-0.569931 -0.3348936,-0.03437 -0.3007796,-0.04957 -0.3270862,0.145855 -0.012506,0.09265 -0.020024,0.170929 -0.016844,0.173946 0.00289,0.003 0.081927,0.03922 0.1748862,0.08048 0.09296,0.04123 0.251673,0.126689 0.352706,0.189876 0.155888,0.0975 0.185245,0.109393 0.19392,0.07857 0.02335,-0.08288 0.134425,-0.436581 0.139362,-0.443674 0.01149,-0.01656 0.27777,0.07056 0.511442,0.167274 0.172782,0.07152 0.242977,0.110262 0.236709,0.130646 -0.0051,0.01591 -0.09445,0.165375 -0.199016,0.332081 l -0.190118,0.303107 0.09746,0.125701 c 0.111219,0.143453 0.31638,0.442591 0.31638,0.461301 0,0.0069 -0.05306,-0.04821 -0.117935,-0.122376 -0.386336,-0.441828 -0.923095,-0.843243 -1.386124,-1.036615 -0.1041783,-0.04354 -0.1918019,-0.07588 -0.1947224,-0.07194 -0.00289,0.0041 -0.026025,0.06118 -0.051399,0.127186 l -0.046121,0.120022 0.1289739,0.158383 c 0.1454855,0.178655 0.2301445,0.35864 0.3124115,0.664191 0.02884,0.106996 0.05566,0.198595 0.05964,0.203558 0.0036,0.0047 0.07041,-0.170486 0.147603,-0.389885 0.07721,-0.219394 0.144336,-0.398901 0.149165,-0.398901 0.02364,0 0.464844,0.316275 0.464844,0.333247 0,0.01077 -0.09344,0.167516 -0.207648,0.348318 -0.114205,0.180802 -0.319547,0.506264 -0.456314,0.72325 -0.136767,0.216986 -0.251702,0.390731 -0.255417,0.386099 -0.0036,-0.0047 -0.0467,-0.197158 -0.09547,-0.427826 -0.1523842,-0.720421 -0.224899,-0.94996 -0.3466438,-1.097228 l -0.060218,-0.07282 -0.1201038,0.067 -0.120111,0.067 -0.1786738,0.41664 c -0.098279,0.229148 -0.1946933,0.429406 -0.2142624,0.44501 -0.019591,0.01562 -0.2645407,0.124471 -0.544378,0.24192 L 7.9218417,15.054186 7.3910399,14.831977 C 7.0990941,14.70976 6.8525104,14.600125 6.8430693,14.588348 6.8336715,14.576576 6.748354,14.384068 6.6535591,14.160569 L 6.4812036,13.754203 6.3639625,13.678416 C 6.2502854,13.604942 6.245319,13.603776 6.2007735,13.640203 6.0759346,13.742296 5.966566,14.07818 5.8148278,14.825505 5.7720317,15.036138 5.733067,15.208322 5.7281729,15.208127 5.7231126,15.207932 5.5551595,14.947213 5.35456,14.628756 Z m 2.985722,-0.220346 c 0.2109733,-0.08594 0.3947363,-0.167794 0.4083631,-0.181908 0.027398,-0.02834 0.1523888,-0.32778 0.1421741,-0.340528 -0.00361,-0.0041 -0.04829,0.0059 -0.099393,0.0226 -0.092091,0.03035 -0.094462,0.02981 -0.2482463,-0.05342 -0.085404,-0.0462 -0.2605502,-0.131131 -0.3892277,-0.188723 l -0.2339617,-0.104719 -0.1841244,0.08199 c -0.1012721,0.04508 -0.2721963,0.126801 -0.3798298,0.181565 -0.1993632,0.101442 -0.2404604,0.107795 -0.3809213,0.05892 -0.040989,-0.01426 -0.039398,-0.0067 0.03629,0.171414 l 0.079173,0.186345 0.3907094,0.159607 c 0.2148914,0.08778 0.4097727,0.160389 0.433072,0.161347 0.023278,0.0012 0.2149709,-0.06857 0.4259441,-0.154508 z M 7.2999681,13.478774 c 0.1090794,-0.0599 0.2541524,-0.138123 0.3223876,-0.173828 0.1359138,-0.07113 0.1467574,-0.09111 0.1499237,-0.27624 0.00145,-0.101454 -7.229e-4,-0.106896 -0.1227641,-0.241926 -0.068532,-0.07598 -0.1245352,-0.147729 -0.1245352,-0.159453 0,-0.01171 0.020025,-0.05099 0.044459,-0.08729 0.070483,-0.104536 0.049591,-0.222286 -0.05458,-0.308005 -0.049519,-0.04076 -0.149808,-0.05827 -0.1723844,-0.03011 -0.00578,0.0072 7.229e-4,0.0533 0.014747,0.1024 l 0.02523,0.08929 -0.048869,-0.03916 C 7.1543314,12.210651 7.0848094,12.087842 7.0358108,11.828443 6.9961232,11.618455 7.0017618,11.561999 7.0934988,11.249835 l 0.084508,-0.287597 0.012073,0.208556 c 0.011856,0.204872 0.062821,0.619348 0.078536,0.638963 0.00434,0.0053 0.044097,-0.01189 0.088144,-0.03863 0.044097,-0.02674 0.098857,-0.04862 0.1217302,-0.04862 0.022844,0 0.1268485,0.03999 0.2310484,0.08882 0.1041998,0.04886 0.2007947,0.08882 0.2146528,0.08882 0.01388,0 0.107359,-0.03999 0.2077924,-0.08882 0.2074961,-0.100921 0.2427667,-0.105287 0.3518317,-0.04354 0.043013,0.02437 0.082534,0.03898 0.087754,0.03248 0.020169,-0.0252 0.072565,-0.497444 0.073874,-0.666173 0.00145,-0.21097 0.00578,-0.205156 0.1144145,0.163819 0.076787,0.260588 0.078905,0.274513 0.061881,0.406295 -0.01988,0.154017 -0.072291,0.35321 -0.1137133,0.432109 -0.028627,0.0546 -0.2207252,0.252277 -0.2451306,0.2523 -0.00759,6e-6 -7.229e-4,-0.03088 0.014603,-0.0686 0.038242,-0.09237 0.022772,-0.131225 -0.052266,-0.131225 -0.06911,0 -0.1638541,0.08489 -0.1898137,0.170119 -0.018579,0.06095 0.00506,0.152053 0.056604,0.221138 l 0.03535,0.04709 -0.1363981,0.155319 -0.1363909,0.155325 0.012723,0.137194 c 0.00983,0.105548 0.021543,0.144139 0.050965,0.167298 0.021037,0.01656 0.1733315,0.10224 0.3385013,0.190397 l 0.3003101,0.160299 0.1744158,-0.0713 C 9.185693,13.417757 9.1959511,13.4023 9.0398754,13.358308 8.8985688,13.318498 8.6585564,13.200735 8.6294449,13.156956 c -0.014964,-0.02254 0.00361,-0.02413 0.092178,-0.008 0.1555841,0.02834 0.409845,0.006 0.5483178,-0.04803 0.115658,-0.04513 0.2304195,-0.125098 0.2416607,-0.168333 0.00361,-0.01414 -0.096371,-0.02295 -0.2743867,-0.02431 -0.1783122,-0.0012 -0.3221997,-0.01414 -0.3958061,-0.03514 l -0.1156363,-0.033 0.1334269,-0.02875 c 0.3204865,-0.06903 0.710278,-0.243931 0.7906436,-0.35476 0.033109,-0.04561 0.032892,-0.04584 -0.038748,-0.04584 -0.06217,0 -0.1809075,0.0139 -0.6718193,0.07866 -0.081978,0.01083 -0.059929,-0.0067 0.2812181,-0.222931 0.3416604,-0.21659 0.3692248,-0.238459 0.3578463,-0.283889 -0.00651,-0.02709 -0.07005,-0.256559 -0.1405982,-0.50996 -0.070556,-0.253407 -0.1241521,-0.46074 -0.1191279,-0.46074 0.010844,0 0.4096498,0.271112 0.4690005,0.318849 0.039615,0.03182 0.054507,0.02135 0.3792297,-0.265114 0.32006,-0.282404 0.339651,-0.303859 0.368553,-0.403591 0.01677,-0.05791 0.108118,-0.442644 0.202949,-0.8549253 0.09484,-0.4122749 0.174192,-0.7470058 0.176339,-0.7438411 0.0022,0.00296 0.177018,0.4339901 0.388598,0.9573904 0.211574,0.523401 0.384688,0.940952 0.384688,0.927885 0,-0.01307 -0.01547,-0.106571 -0.03434,-0.207794 C 11.634761,10.639576 11.562651,10.232016 11.49342,9.8351205 11.42424,9.4382115 11.363848,9.0929217 11.359294,9.0677993 11.350619,9.0198851 11.300883,8.9691848 10.424835,8.1139106 10.12639,7.8225569 9.7381098,7.4432599 9.5619807,7.2710232 9.0901681,6.8096509 9.1014382,6.819707 9.1141686,6.8714188 9.1295665,6.9340504 9.2329929,7.644115 9.227665,7.6507579 9.2254963,7.6537156 9.1116673,7.4459454 8.9753126,7.1888533 8.8389578,6.9317671 8.711025,6.7132133 8.6910221,6.7031809 8.6709976,6.6931248 8.5225486,6.6591117 8.3610945,6.6274883 8.1996404,6.5959004 8.0527457,6.5659511 8.0346586,6.5609645 c -0.028555,-0.00787 -0.031374,5.915e-4 -0.021615,0.066074 0.00651,0.041348 0.0743,0.2900051 0.151319,0.5526163 L 8.3043897,7.6571287 8.2171565,8.0633405 C 8.1691554,8.2867566 8.0830283,8.688946 8.025709,8.9570939 7.9266851,9.4203353 7.9205187,9.4408083 7.9020195,9.3678723 7.8645007,9.2200836 7.5426913,7.6860192 7.5428865,7.6560521 7.5430455,7.63943 7.5759234,7.5158824 7.6160013,7.3815452 7.7134131,7.0552614 7.8470714,6.5661108 7.8409194,6.5584327 7.8358591,6.5523991 7.2333018,6.6710843 7.1578014,6.6929 7.1320659,6.7003534 7.0385289,6.8580739 6.8679806,7.1814828 6.7294644,7.4441708 6.6136619,7.6590985 6.6106474,7.6590985 c -0.00289,0 0.021181,-0.1773535 0.053784,-0.3941208 C 6.6970348,7.0482044 6.7218305,6.8638945 6.7195895,6.8554001 6.7174208,6.846882 6.4740396,7.0767104 6.1789489,7.3660944 5.8838582,7.6554783 5.3826883,8.1466875 5.0652381,8.4576683 L 4.4880473,9.0230972 4.4216122,9.4013471 c -0.036507,0.2080423 -0.1137639,0.6472259 -0.1716327,0.9759769 -0.057905,0.328744 -0.1032456,0.599844 -0.1008238,0.602447 0.00217,0.0024 0.176505,-0.423745 0.3868565,-0.947435 0.2103516,-0.5236907 0.3864807,-0.9521618 0.3913964,-0.9521559 0.00506,1.18e-5 0.092821,0.367212 0.1953368,0.8160082 0.1504225,0.6585417 0.1950476,0.8268277 0.2312797,0.8721687 0.058845,0.0736 0.6319654,0.576638 0.6570069,0.576638 0.010627,0 0.1266967,-0.07494 0.2579116,-0.166528 0.1312149,-0.09159 0.2441836,-0.166535 0.2510368,-0.166535 0.00651,0 0.00651,0.01751 0,0.03886 -0.00723,0.02135 -0.071568,0.251141 -0.1436634,0.5106 l -0.1311353,0.471747 0.3650247,0.22473 c 0.200773,0.123601 0.3619596,0.228568 0.3582005,0.233259 -0.00361,0.0047 -0.1502635,-0.01136 -0.3255685,-0.03573 -0.3483834,-0.04833 -0.4699619,-0.05489 -0.4699619,-0.02538 0,0.032 0.125887,0.125269 0.2579694,0.1911 0.1140748,0.05685 0.4315394,0.163104 0.6048854,0.202441 l 0.071134,0.01615 -0.097853,0.03141 c -0.061447,0.01976 -0.2056237,0.03289 -0.3872903,0.03532 -0.3311348,0.0047 -0.3553161,0.02266 -0.1766062,0.133083 0.1705916,0.105387 0.4718849,0.151545 0.6928776,0.10615 0.046483,-0.0096 0.084508,-0.01041 0.084508,-0.0018 0,0.03809 -0.341017,0.202671 -0.4861262,0.234602 -0.037447,0.0082 -0.061447,0.02242 -0.053351,0.03153 0.01547,0.01745 0.3096429,0.14699 0.37049,0.163109 0.019591,0.0053 0.038386,0.01059 0.041856,0.01201 0.00361,0.0012 0.095518,-0.04643 0.204597,-0.106334 z M 6.6894804,11.299713 c 3.904e-4,-0.01781 0.023422,-0.150551 0.051254,-0.294997 L 6.791338,10.742081 6.7293849,10.582834 C 6.695336,10.495246 6.6649016,10.420222 6.6617208,10.41611 6.6588291,10.41197 6.5666657,10.394046 6.4574706,10.3763 6.2189907,10.337437 6.1009906,10.28563 5.9642093,10.159728 5.8316932,10.037748 5.7505758,9.9208907 5.7012302,9.7808748 5.6616871,9.6686669 5.6035003,9.4077475 5.6035003,9.3426434 5.6035003,9.3236552 5.503356,9.2103056 5.3809534,9.0907626 5.2585579,8.9712138 5.1604884,8.8714458 5.1630185,8.8690501 c 0.00289,-0.00237 0.2172626,0.022478 0.4771694,0.055308 l 0.4725716,0.059662 0.2835459,0.2007486 C 6.5522509,9.2951788 6.6818754,9.3791824 6.684355,9.3714392 6.6865237,9.3636901 6.6367877,9.1989126 6.5731574,9.0052506 6.5095416,8.8115885 6.4574633,8.6428478 6.4574633,8.6302836 c 0,-0.0126 0.029784,-0.068848 0.066291,-0.1250619 0.1265739,-0.1952237 0.520833,-0.7583574 0.520833,-0.743924 0,0.00799 -0.028555,0.263528 -0.063399,0.56786 -0.034916,0.3043379 -0.060869,0.5669964 -0.057833,0.5836895 0.00289,0.016681 0.1158025,0.1912368 0.2505091,0.3878801 l 0.2449134,0.3575286 -0.030507,0.3541921 c -0.016771,0.19481 -0.032748,0.351412 -0.035495,0.348005 -0.00289,-0.0035 -0.025374,-0.154402 -0.050387,-0.335547 C 7.2773771,9.8437666 7.2506296,9.6814204 7.2428945,9.6641417 7.2280026,9.6308975 6.9549389,9.369008 6.9351167,9.368937 c -0.00651,-1.77e-5 0.00434,0.05241 0.024001,0.1165321 0.08617,0.2821199 0.2055225,0.8085309 0.2554898,1.1268649 0.00817,0.05211 0.00578,0.05093 -0.042001,-0.01952 l -0.050748,-0.07502 -0.046121,0.09723 c -0.091231,0.192237 -0.3868926,0.716371 -0.3862348,0.6847 z m -0.126581,-1.230791 c 0.080156,-0.03532 0.2255759,-0.156502 0.2386027,-0.1988676 0.00434,-0.01467 -0.055086,-0.07012 -0.136015,-0.1266709 L 6.5214623,9.6427637 6.4521355,9.7522624 c -0.038169,0.060224 -0.07597,0.101022 -0.084074,0.090658 C 6.3384945,9.8051218 6.2658207,9.5999721 6.2550855,9.5241198 6.2447479,9.4510773 6.2339043,9.440341 6.0814287,9.3524451 l -0.1626396,-0.093764 0.00983,0.17843 c 0.012145,0.2214405 0.070483,0.3819234 0.1843703,0.5069972 0.1337595,0.1469487 0.2969268,0.1922067 0.4499735,0.1248137 z m 2.4355029,0.981685 C 8.9148703,10.901144 8.8166778,10.719839 8.7801855,10.647708 l -0.066363,-0.131149 -0.04229,0.06454 c -0.03188,0.04868 -0.042435,0.05525 -0.042941,0.02662 -7.229e-4,-0.06286 0.1160772,-0.6080665 0.2005633,-0.9335281 0.043591,-0.1679244 0.075725,-0.305308 0.071423,-0.305308 -0.00578,0 -0.1331523,0.1163841 -0.3055801,0.279878 -0.00361,0.00355 -0.0287,0.1639671 -0.056098,0.3570851 -0.027398,0.193118 -0.051326,0.346124 -0.053206,0.340019 -0.00217,-0.0061 -0.016844,-0.162873 -0.033398,-0.3483716 l -0.03,-0.3372736 0.2451595,-0.3621484 C 8.8817973,8.9814532 8.9125498,8.9261626 8.9120727,8.8581954 8.9118052,8.8154276 8.8847468,8.5506514 8.8519268,8.2697678 8.8191791,7.9888842 8.7937328,7.7569736 8.7953955,7.7544123 c 0.010627,-0.016031 0.5864873,0.8502757 0.5844487,0.8792312 -0.00145,0.019698 -0.055158,0.1947032 -0.1194821,0.3889154 -0.064339,0.194218 -0.1146675,0.3559846 -0.1118626,0.3594865 0.00289,0.00355 0.1365644,-0.085228 0.2972377,-0.1971817 L 9.7378712,8.9813172 10.19699,8.9243525 c 0.252511,-0.031351 0.459111,-0.050103 0.459111,-0.041762 0,0.00834 -0.09242,0.1036898 -0.205371,0.2118635 -0.142955,0.1369044 -0.208045,0.2135494 -0.214183,0.2522002 -0.07561,0.4762907 -0.165061,0.6613158 -0.4185632,0.8658028 -0.1130988,0.09123 -0.2509283,0.140484 -0.4695137,0.167753 -0.068459,0.0086 -0.1371428,0.02372 -0.1525552,0.03372 -0.015398,0.01 -0.05429,0.0892 -0.086329,0.17604 l -0.058339,0.15788 0.053567,0.281949 c 0.029495,0.155076 0.051688,0.284338 0.049447,0.287254 -0.00217,0.003 -0.072435,-0.116987 -0.1559672,-0.26645 z M 9.6159312,10.039842 C 9.7040532,9.983114 9.8048775,9.8524149 9.8528062,9.7327832 9.9004462,9.6138022 9.9379932,9.361815 9.9163502,9.3058737 9.9009522,9.2660047 9.8916272,9.2687847 9.7496261,9.3551487 9.603823,9.4438257 9.5985963,9.4496877 9.5789839,9.5465452 9.5569349,9.6552985 9.4926979,9.8242877 9.4653356,9.8453937 c -0.0094,0.00728 -0.043591,-0.031647 -0.075869,-0.086447 -0.032314,-0.054776 -0.065134,-0.1000401 -0.07292,-0.1005133 -0.022916,-0.00118 -0.2793675,0.1792582 -0.2793675,0.1968208 0,0.035196 0.1032239,0.1357687 0.1956982,0.1906868 0.080987,0.04809 0.1163302,0.05649 0.2051177,0.04874 0.059495,-0.0053 0.1387259,-0.02958 0.1779074,-0.05484 z m -2.111554,0.710639 c 0.044386,-0.07785 0.389459,-0.493428 0.409686,-0.493428 0.038025,0 0.4441903,0.488819 0.4463879,0.53726 3.904e-4,0.0085 -0.065351,-0.02964 -0.1460778,-0.08478 -0.080727,-0.05513 -0.1811389,-0.120194 -0.2231398,-0.144589 l -0.076361,-0.04437 -0.2233638,0.146694 c -0.2032309,0.133468 -0.2201036,0.140969 -0.1871318,0.08319 z m -2.3850439,1.561765 c 0.1394343,-0.04501 0.4067581,-0.09509 0.6034323,-0.113036 l 0.1636806,-0.01491 0.020241,-0.121614 c 0.011133,-0.06689 0.017494,-0.12444 0.014241,-0.127889 -0.00361,-0.0035 -0.2021466,-0.199057 -0.441877,-0.434676 -0.2397377,-0.23562 -0.4406192,-0.437368 -0.4464097,-0.448335 -0.00578,-0.01094 -0.037157,-0.164287 -0.069761,-0.340711 -0.032603,-0.176425 -0.065857,-0.320777 -0.073975,-0.320777 -0.0081,0 -0.014747,0.0091 -0.014747,0.02005 0,0.01106 -0.1644686,0.361947 -0.3654874,0.779812 -0.2010116,0.417865 -0.3631308,0.768236 -0.3602608,0.7786 0.00904,0.03271 0.1825557,0.306266 0.1950837,0.307603 0.00651,5.92e-4 0.085115,-0.176076 0.1745315,-0.392849 0.089409,-0.216767 0.1691458,-0.402438 0.1771918,-0.412594 0.00802,-0.01018 0.03441,0.05478 0.058628,0.144322 0.1438658,0.532019 0.2151155,0.753158 0.2389787,0.741729 0.013591,-0.0065 0.070556,-0.02668 0.1265088,-0.04472 z m 5.8810447,-0.392097 c 0.06506,-0.227149 0.118362,-0.42449 0.118362,-0.438533 0,-0.0731 0.04337,0.0095 0.18789,0.357487 0.08746,0.210662 0.161621,0.395511 0.16478,0.410778 0.01048,0.05052 0.03217,0.02928 0.133889,-0.131166 l 0.100752,-0.158922 -0.03347,-0.06867 c -0.130766,-0.268195 -0.695335,-1.436307 -0.710509,-1.470037 -0.02342,-0.05211 -0.02046,-0.0626 -0.09223,0.327597 l -0.05566,0.302889 -0.453017,0.449541 c -0.324398,0.321913 -0.4506461,0.459711 -0.444646,0.485359 0.00434,0.0197 0.013591,0.07243 0.01988,0.117171 l 0.011566,0.08135 0.17177,0.01473 c 0.210727,0.01804 0.451043,0.06384 0.616538,0.117508 0.06853,0.02218 0.129315,0.0349 0.135162,0.02816 0.0058,-0.0067 0.06391,-0.198069 0.128981,-0.425218 z M 4.6677621,7.9200652 C 4.6830877,7.8681878 4.7303658,7.7074623 4.7728728,7.5629566 L 4.8501226,7.3002212 4.6483809,6.5548421 C 4.5374147,6.1448859 4.4491622,5.8063041 4.4522634,5.8024414 c 0.00289,-0.00414 0.057254,0.012541 0.1203496,0.036498 0.06311,0.023957 0.1207544,0.043596 0.1281281,0.043714 0.00737,1.183e-4 -0.091368,-0.2621202 -0.2194313,-0.5826898 L 4.2484759,4.7171022 4.3378561,4.8281271 C 4.4712181,4.9937682 5.477541,6.3140762 5.473565,6.3181874 5.4713963,6.319962 5.3380344,6.2977203 5.1765803,6.2683211 5.0151262,6.2389811 4.8724315,6.2176267 4.8594698,6.2209393 c -0.01294,0.00355 0.1493382,0.1946796 0.3606512,0.4252533 0.2113202,0.2305737 0.3877891,0.4264481 0.3921627,0.4352738 0.00434,0.00881 -0.1098892,0.011476 -0.2539067,0.00592 L 5.0965255,7.0772073 5.265534,7.2953174 c 0.092959,0.119963 0.1700856,0.2214227 0.1713868,0.2254688 0.00506,0.014611 0.5402503,-0.5292565 0.5402503,-0.5486766 0,-0.010943 -0.054652,-0.1531243 -0.1215352,-0.3159201 C 5.5485449,5.9083199 5.1551244,5.2555217 4.5867965,4.5508459 4.3994768,4.3185804 3.9867329,3.8622303 3.9639902,3.8622303 c -0.00434,0 0.045182,0.5320723 0.1097084,1.1823743 l 0.1172628,1.1823743 0.1743797,0.340593 0.1743869,0.340593 -0.043953,0.059094 C 4.471558,6.9997339 4.438593,7.0523809 4.422436,7.0842051 4.393953,7.1403411 4.340437,7.4346234 4.340437,7.5351249 c 0,0.045785 0.259596,0.4780416 0.2876303,0.4789289 0.00651,1.952e-4 0.024434,-0.042117 0.039688,-0.093995 z M 11.353533,7.8090404 c 0.07256,-0.1129592 0.136701,-0.2153773 0.142521,-0.2275924 0.01453,-0.030464 -0.03036,-0.3410722 -0.06369,-0.4406035 -0.01497,-0.044661 -0.04815,-0.1155087 -0.0738,-0.1574721 -0.05494,-0.089907 -0.06629,-0.053001 0.145724,-0.4752851 L 11.65299,6.2118711 11.759655,5.0981206 c 0.0587,-0.6125622 0.111219,-1.1412272 0.116785,-1.1748086 0.0058,-0.033599 0.0043,-0.061064 -0.0022,-0.061064 -0.02429,0 -0.376339,0.3897968 -0.610286,0.6757321 -0.566607,0.6925138 -0.9553,1.3351081 -1.2782588,2.1132464 -0.071495,0.1722663 -0.1300004,0.3191499 -0.1300004,0.326414 0,0.00728 0.090067,0.1003181 0.2001512,0.206794 0.110077,0.106476 0.232436,0.2263029 0.271907,0.2662846 l 0.07179,0.072694 0.167158,-0.2233511 0.167158,-0.2233511 -0.261158,0.0084 c -0.143642,0.00473 -0.261157,0.00728 -0.261157,0.00592 0,-0.00118 0.17764,-0.1963476 0.394765,-0.4332389 0.217125,-0.2368972 0.383249,-0.4334519 0.36916,-0.4367881 -0.0141,-0.00355 -0.155924,0.01745 -0.31521,0.046258 -0.159285,0.028748 -0.287377,0.044602 -0.284659,0.035137 0.01207,-0.04194 1.206236,-1.5874917 1.205029,-1.5596364 -4.49e-4,0.010293 -0.102856,0.2710464 -0.227564,0.5794068 -0.124709,0.3083603 -0.222417,0.5605782 -0.217126,0.5604836 0.0051,-4.14e-5 0.06123,-0.019757 0.124348,-0.043714 0.06311,-0.023957 0.11821,-0.03916 0.122475,-0.033836 0.0043,0.00532 -0.08254,0.3435743 -0.192886,0.7516672 l -0.200643,0.7419896 0.10386,0.3578421 c 0.05711,0.196809 0.109441,0.3578362 0.116258,0.3578362 0.0065,0 0.07178,-0.092427 0.144321,-0.2053921 z"
       id="path1" /><ellipse
       style="fill:#ff0000"
       id="path2"
       cx="13.286864"
       cy="2.7822921"
       rx="2.6119478"
       ry="2.4416034" /></g></svg>
